<svg xmlns="http://www.w3.org/2000/svg" viewBox="0 0 111.9 945.24"><defs><style>.cls-1,.cls-2,.cls-4{fill:none;}.cls-2{stroke:#00faac;}.cls-2,.cls-4{stroke-width:10px;}.cls-3{fill:#db4437;}.cls-4{stroke:#ff5d9e;}</style></defs><title>about-me-right</title><g id="Layer_2" data-name="Layer 2"><g id="Layer_1-2" data-name="Layer 1"><g id="Rectangle_12" data-name="Rectangle 12"><path class="cls-1" d="M71.63,427.45h0A30,30,0,0,1,53.7,389h0a30,30,0,0,1,38.45-17.93h0a30,30,0,0,1,17.93,38.45h0A30,30,0,0,1,71.63,427.45Z"/><path class="cls-2" d="M73.34,422.75h0a25,25,0,0,1-14.94-32h0a25,25,0,0,1,32-14.94h0a25,25,0,0,1,14.94,32h0A25,25,0,0,1,73.34,422.75Z"/></g><g id="Path_34" data-name="Path 34"><path class="cls-1" d="M31.56,0,58.75,12.68,40.48,19.37l-21.6,7.82Z"/><path class="cls-3" d="M31.56,0,58.75,12.68,40.48,19.37l-21.6,7.82Z"/></g><path id="Path_40" data-name="Path 40" class="cls-4" d="M2.54,940.94l32.34-19-6.41-42.28,36.47-5.82L58,832.36"/></g></g></svg>