<svg xmlns="http://www.w3.org/2000/svg" viewBox="0 0 207.36 892.26"><defs><style>.cls-1,.cls-2,.cls-3,.cls-4{fill:none;}.cls-1{stroke:#009b9f;}.cls-1,.cls-3,.cls-4{stroke-width:10px;}.cls-3{stroke:#00faac;}.cls-4{stroke:#7378ff;}</style></defs><title>about-me-left</title><g id="Layer_2" data-name="Layer 2"><g id="Layer_1-2" data-name="Layer 1"><path id="Path_35" data-name="Path 35" class="cls-1" d="M5,294.16l4.9,37.22L51.29,342l-8.87,35.85,40.87,9.8"/><g id="Rectangle_22" data-name="Rectangle 22"><path class="cls-2" d="M140.25,97h0a50,50,0,0,1-29.88-64.09h0A50,50,0,0,1,174.45,3h0a50,50,0,0,1,29.88,64.08h0A50,50,0,0,1,140.25,97Z"/><path class="cls-3" d="M142,92.3h0a45,45,0,0,1-26.9-57.68h0A45,45,0,0,1,172.74,7.73h0a45,45,0,0,1,26.9,57.67h0A45,45,0,0,1,142,92.3Z"/></g><g id="Rectangle_23" data-name="Rectangle 23"><rect class="cls-2" x="67.47" y="777.17" width="100" height="100" transform="translate(-693.47 626.22) rotate(-68)"/><rect class="cls-4" x="72.47" y="782.17" width="90" height="90" transform="translate(-693.47 626.22) rotate(-68)"/></g></g></g></svg>