<svg xmlns="http://www.w3.org/2000/svg" viewBox="0 0 751.01 643.78"><defs><style>.cls-1,.cls-3{fill:none;stroke-width:10px}.cls-1{stroke:#ff0}.cls-3{stroke:#7378ff}</style></defs><g id="Layer_2" data-name="Layer 2"><g id="Layer_1-2" data-name="Layer 1"><path class="cls-1" d="M570.18 21.65h2.72v2.5h-2.72zM629.18 496.64h45.38v41.74h-45.38zM89.11 406.48h13.62V419H89.11zM645.52 181.09h81.69v75.13h-81.69z"/><path id="Path_35-3" data-name="Path 35-3" d="M5 233.38l4.32 31 37.51 9-8.17 29.86 37 8.3" stroke="#009b9f" fill="none" stroke-width="10"/><path class="cls-3" d="M320.09 637.46l-75.74-28.15 30.6-69.66 75.74 28.14-30.6 69.67z"/><path id="Path_37-2" data-name="Path 37-2" d="M400.34 11.18l-33.5-5.71-20.77 30.14-28.46-16.3-19.93 29.9" stroke="#ff8c00" fill="none" stroke-width="10"/><path d="M48.76 165.14c-5.88-2-8.92-8-6.78-13.37 2.15-5.42 8.66-8.21 14.54-6.24 5.89 2 8.93 8 6.79 13.38-2.15 5.41-8.66 8.21-14.55 6.23z" fill="#00faac"/><path class="cls-3" d="M743.28 467.67l-2.53-.94 1.02-2.32 2.53.93-1.02 2.33z"/></g></g></svg>
