<svg xmlns="http://www.w3.org/2000/svg" viewBox="0 0 717.8 683.01"><defs><style>.cls-1,.cls-3,.cls-4,.cls-5{fill:none;}.cls-2{fill:#db4437;}.cls-3{stroke:#7378ff;}.cls-3,.cls-4,.cls-5{stroke-width:10px;}.cls-4{stroke:#00faac;}.cls-5{stroke:#ff5d9e;}</style></defs><title>intro2</title><g id="Layer_2" data-name="Layer 2"><g id="Layer_1-2" data-name="Layer 1"><path class="cls-1" d="M23.78,545.78l51,21.88L40.53,579.2,0,592.69Z"/><path class="cls-2" d="M28.17,556.88,17.46,578l19.94-6.64,13.75-4.63-23-9.85m-4.39-11.1,51,21.88L40.53,579.2,0,592.69Z"/><rect class="cls-1" x="513.03" y="57.59" width="11.8" height="10.85"/><rect class="cls-1" x="572.03" y="532.58" width="54.46" height="50.09"/><rect class="cls-1" x="31.95" y="442.43" width="22.69" height="20.87"/><polygon class="cls-1" points="585.86 66.1 535.37 47.34 555.77 0.9 606.26 19.66 585.86 66.1"/><polygon class="cls-3" points="583.36 60.67 541.28 45.03 558.28 6.33 600.36 21.97 583.36 60.67"/><polygon class="cls-1" points="79.61 262.72 45.94 250.21 59.54 219.25 93.21 231.76 79.61 262.72"/><polygon class="cls-3" points="77.1 257.28 51.85 247.9 62.05 224.68 87.3 234.06 77.1 257.28"/><rect class="cls-1" x="588.37" y="217.04" width="90.77" height="83.48"/><path class="cls-1" d="M680.79,637.68h0c-14.14-4.73-21.42-19.1-16.28-32.09h0c5.14-13,20.77-19.7,34.9-15h0c14.13,4.73,21.42,19.1,16.28,32.1h0C710.54,635.71,694.92,642.42,680.79,637.68Z"/><path class="cls-4" d="M682.34,633.76h0c-11.78-3.94-17.85-15.92-13.57-26.75h0c4.29-10.83,17.31-16.41,29.09-12.47h0c11.78,3.94,17.85,15.92,13.56,26.75h0C707.14,632.12,694.11,637.7,682.34,633.76Z"/><path class="cls-1" d="M77.38,161.35h0c-23.55-7.89-35.69-31.84-27.12-53.5h0C58.83,86.19,84.87,75,108.43,82.9h0c23.55,7.89,35.7,31.84,27.12,53.5h0C127,158.06,100.94,169.23,77.38,161.35Z"/><path class="cls-4" d="M78.94,157.43h0c-21.2-7.1-32.13-28.66-24.42-48.15h0c7.72-19.5,31.16-29.55,52.36-22.45h0C128.07,93.92,139,115.48,131.29,135h0C123.57,154.47,100.13,164.52,78.94,157.43Z"/><polygon class="cls-1" points="269.98 683.01 185.82 651.73 219.82 574.33 303.99 605.61 269.98 683.01"/><path class="cls-1" d="M425,24l24.68,10.59-16.58,5.58-19.61,6.53Z"/><path class="cls-2" d="M425,24l24.68,10.59-16.58,5.58-19.61,6.53Z"/><path id="Path_36" data-name="Path 36" class="cls-5" d="M624.41,434.7l29.37-15.89L648,383.52l33.1-4.86-6.29-34.6"/><path class="cls-1" d="M677.32,154.27l20.57,8.82-13.82,4.65-16.34,5.44Z"/><path class="cls-2" d="M677.32,154.27l20.57,8.82-13.82,4.65-16.34,5.44Z"/><path class="cls-1" d="M523.92,603.38l82.27,35.28-55.26,18.62L485.56,679Z"/><path class="cls-2" d="M528.31,614.48,503,664.35l44.78-14.91,34.74-11.7-54.24-23.26m-4.39-11.1,82.27,35.28-55.26,18.62L485.56,679Z"/><polygon class="cls-1" points="693.17 513.22 682.23 509.15 686.65 499.09 697.59 503.16 693.17 513.22"/><path class="cls-1" d="M20,431.58h0a5.31,5.31,0,0,1-3.52-6.95h0A6.06,6.06,0,0,1,24,421.38h0a5.33,5.33,0,0,1,3.53,7h0A6.06,6.06,0,0,1,20,431.58Z"/><path class="cls-4" d="M21.53,427.66h0a1.23,1.23,0,0,1-.82-1.61h0a1.4,1.4,0,0,1,1.75-.74h0a1.22,1.22,0,0,1,.81,1.6h0A1.39,1.39,0,0,1,21.53,427.66Z"/></g></g></svg>